PathFileType	4	(X/Y/Z)	RBDS028\RBDS028runT35.trc
DataRate	CameraRate	NumFrames	NumMarkers	Units	OrigDataRate	OrigDataStartFrame	OrigNumFrames
150.000000	150.000000	4	33	mm	150.000000	1687	4500
Frame#	Time	L.ASIS			L.Heel.Bottom			L.Heel.Lateral			L.Heel.Top			L.Iliac.Crest			L.MT1			L.MT5			L.PSIS			L.Shank.Bottom.Lateral			L.Shank.Bottom.Medial			L.Shank.Top.Lateral			L.Shank.Top.Medial			L.Thigh.Bottom.Lateral			L.Thigh.Bottom.Medial			L.Thigh.Top.Lateral			L.Thigh.Top.Medial			R.ASIS			R.ASY			R.Heel.Bottom			R.Heel.Lateral			R.Heel.Top			R.Iliac.Crest			R.MT1			R.MT5			R.PSIS			R.Shank.Bottom.Lateral			R.Shank.Bottom.Medial			R.Shank.Top.Lateral			R.Shank.Top.Medial			R.Thigh.Bottom.Lateral			R.Thigh.Bottom.Medial			R.Thigh.Top.Lateral			R.Thigh.Top.Medial			
		X1	Y1	Z1	X2	Y2	Z2	X3	Y3	Z3	X4	Y4	Z4	X5	Y5	Z5	X6	Y6	Z6	X7	Y7	Z7	X8	Y8	Z8	X9	Y9	Z9	X10	Y10	Z10	X11	Y11	Z11	X12	Y12	Z12	X13	Y13	Z13	X14	Y14	Z14	X15	Y15	Z15	X16	Y16	Z16	X17	Y17	Z17	X18	Y18	Z18	X19	Y19	Z19	X20	Y20	Z20	X21	Y21	Z21	X22	Y22	Z22	X23	Y23	Z23	X24	Y24	Z24	X25	Y25	Z25	X26	Y26	Z26	X27	Y27	Z27	X28	Y28	Z28	X29	Y29	Z29	X30	Y30	Z30	X31	Y31	Z31	X32	Y32	Z32	X33	Y33	Z33	

1688	11.24666666666667	1985.640616087745	875.5062922055075	892.7515641510449	2079.774517875775	31.58213951692289	969.0282582503899	2109.152737099907	41.61020019024149	923.3390026749541	2085.282980101314	75.34178916585446	959.2763082287154	1913.48054044912	925.7056877327835	859.8043222857279	2292.984668614223	73.69094399497187	1013.367448150768	2263.502983058209	42.56900579371357	906.8534103474746	1833.900975994077	886.0396229719377	963.0534205216676	2128.402893513658	170.0933477857593	898.1606431776074	2091.383639562174	165.6220962721043	932.774341764125	2105.62988442875	244.9164654438477	877.7769226518706	2069.768191871851	246.2557085690376	917.1084353885412	2076.895846130342	564.4590698439572	841.9620345413647	2018.466937213705	532.5475522995159	871.4217874233368	2019.916103303123	657.6744244342523	830.0078959268998	1963.710410121203	626.3738554608069	856.89795120248	1993.526898807613	861.2548334750987	1125.483736842926	1472.214197204634	240.1517708302413	1052.042329893256	1412.972119929714	414.2571196802153	1008.176334411792	1426.165652300199	391.7597829118472	1056.628149762525	1457.227838540107	406.4714248799625	1016.617971610292	1950.090467693448	930.1915012892327	1141.905940902691	1435.277046458853	196.1105317700575	1002.892293271636	1408.556493515981	245.4174771354736	1102.779256708345	1842.322165707541	890.7279770706708	1056.218949483814	1540.96105118818	375.6202299827602	1090.53093981745	1536.378713415051	410.24861301129	1047.343311810968	1611.037305790841	412.4439338995828	1110.072824670049	1605.983774697772	444.7701495867395	1067.433590650764	1865.846577570729	524.6755746624127	1149.32775283383	1810.287875956615	539.847558314052	1106.916580037922	1882.03788187535	633.089611828394	1163.816851743281	1827.715497785631	646.762158888714	1124.644377773236	
1689	11.25333333333333	1984.355014349504	871.9939645271096	891.5662395857991	2062.349826438405	30.5601170784824	973.7995769017056	2091.027914335571	40.48364094209047	927.5694614492726	2069.283463151596	74.20351562936375	964.8513759264609	1912.130846156823	921.6748879384596	859.6056423294165	2278.009500784032	65.20297012917476	1014.035272196446	2245.169710094841	37.59202064872967	907.2350529539027	1833.586701494568	881.1349654234401	963.944987908333	2116.152727895011	164.9708209864786	901.6935788762502	2079.232314377479	162.4366386106613	936.5221290231	2095.847627838079	240.1252014594877	880.3251541548593	2060.471677261111	243.3547438340888	919.9376497997505	2073.755141569382	559.6851734814521	841.5073023864118	2015.887622186632	528.1830009341962	872.2614785208474	2016.811023880599	652.9598320384976	829.7741588810457	1961.079572371175	621.987060038806	857.7695717741752	1994.856874676036	858.3954337565933	1124.936400928214	1477.037410464091	251.2335491307014	1052.86030519161	1426.395552534222	427.875676800151	1008.925719193374	1438.768634944863	404.9321233362084	1057.486991624208	1470.213036376189	417.9089683287536	1017.228292293483	1949.651466384458	926.2587328391753	1142.236244504768	1437.693085269932	208.9040898323053	1003.860314636504	1414.171746267585	259.9193309358168	1104.003001866204	1842.850817482629	885.3413822324247	1056.817624953344	1551.838936371321	382.7947213625851	1091.568406771653	1549.171269704373	417.7629712559482	1048.539497637801	1623.590658185341	415.9593535605619	1111.665970630407	1620.39024957953	448.6161908267175	1069.114497101285	1875.952035658109	517.6993350184508	1151.411311924026	1820.673893258239	530.5371083951032	1108.019362161338	1888.522280402652	626.8401225586564	1164.624177152556	1834.178122327742	638.2925332138526	1124.763074249919	
1690	11.26	1982.94480281819	868.0220982235509	890.2148821518191	2042.830134191837	29.51081075412072	978.134803281131	2070.961042050525	39.82632480519649	931.6483851425972	2051.125955227366	73.09580284457518	970.4530715646893	1910.5818415598	916.9412218130101	859.4684521448438	2260.767022376182	56.94798448831337	1015.135519927001	2224.904394097228	33.53994976472161	907.8480307754166	1833.16229932627	875.7900124666349	965.0303187955097	2102.57143238746	159.8534376426537	905.481405115226	2065.508710853851	159.4999889089174	940.1673482108894	2085.228213698545	235.3095128578192	882.8829252600228	2050.14188691137	240.6627341355738	922.467786245748	2070.376700755785	554.5168716603287	841.06540290637	2013.119277248265	523.4779631911832	873.1829563205844	2013.526743378831	647.910099290699	829.5810992085957	1958.309937047765	617.3164567804918	858.7360316148768	1996.138378326183	855.004692195757	1124.288042515966	1483.689523344804	261.4301586950345	1053.756067458225	1441.385072216119	440.2653895781675	1009.740593055779	1452.880381234628	416.8591810729487	1058.441799829144	1484.693317525408	428.2040099349371	1017.949937263612	1949.777640025217	921.6264101822954	1142.630850474768	1442.215777408635	220.8705566450426	1004.845678222789	1421.630675914404	273.2493863258911	1105.175471704337	1843.33230669152	879.440169280683	1057.61659641548	1564.034545928375	389.1859990855887	1092.738450859816	1563.221589688531	424.3404136391107	1049.879419575806	1637.151122789687	418.804290964839	1113.406538736626	1635.768552950816	451.6284268540486	1070.906127270804	1885.978180660966	510.8872840987109	1153.630429915558	1831.178139086197	521.3195575374289	1109.120614793074	1894.90405838241	620.6268707641563	1165.484234141733	1840.730856221385	629.793675425528	1124.766075306452	
1691	11.26666666666667	1981.395538346667	863.6895189849664	888.7329163857743	2021.74151889708	28.43430482531614	981.9810572896953	2049.495505887673	39.59556445681402	935.5193921477993	2031.254558098756	72.01003287738216	975.9252118510909	1908.845272222395	911.5373470981224	859.4069233237248	2241.639618070971	49.45136027383656	1016.665598620797	2203.232945549614	30.58489204811768	908.7719301025575	1832.582402684733	870.1378046219028	966.2916325553566	2087.859479480705	154.9355951665571	909.4122978348374	2050.460715339441	156.9305450731245	943.6241099307632	2073.868462040914	230.6137434090149	885.388682115012	2038.906039612281	238.249133017213	924.6577937371862	2066.694364792099	549.0330052631593	840.6119923787852	2010.055638375785	518.5344280441401	874.132853112777	2010.046977057214	642.6345214387961	829.3890915163519	1955.354213350768	612.498359915131	859.7443346350204	1997.311976982286	851.1378841560503	1123.530235062371	1492.134013872345	270.5921800366143	1054.735728743132	1457.621312651711	451.2549109104028	1010.620199312289	1468.228565971523	427.4010862249094	1059.481300991564	1500.384603875457	437.2468556871471	1018.759503982427	1950.409645958732	916.3979874219187	1143.053648950619	1448.811350742475	231.7634312913254	1005.920918376037	1430.855245708584	285.2012736573599	1106.363050202792	1843.70098575648	873.1688451758524	1058.593920682131	1577.404839679475	394.7074393043565	1094.0164051447	1578.35035062401	429.9278834593154	1051.351671083868	1651.59349035194	420.9506030671137	1115.264180352267	1651.958011304946	453.8049470453291	1072.787522878525	1895.961981504994	504.3268816047296	1155.947990414641	1841.762568662218	512.3105822103776	1110.28711166521	1901.217938850913	614.519055634011	1166.415200218972	1847.351080584616	621.3556415174305	1124.773121898002	
